<?xml version="1.0" encoding="UTF-8"?>
<svg id="Layer_2" data-name="Layer 2" xmlns="http://www.w3.org/2000/svg" viewBox="0 0 169.39 192.29">
  <defs>
    <style>
      .cls-1 {
        fill: #fff;
        stroke-width: 0px;
      }
    </style>
  </defs>
  <g id="Layer_1-2" data-name="Layer 1">
    <path class="cls-1" d="m169.2,72.78c0,12.12-.49,24.27.12,36.36.85,17.08-5.71,30.82-17.17,42.8-12.76,13.35-27.9,23.4-44.34,31.52-6.47,3.2-13.27,5.76-20.04,8.29-1.82.68-4.29.71-6.12.07-25.72-9.04-48.69-22.48-67.15-42.89-6.44-7.12-11.41-15.21-13.43-24.73-.77-3.63-.96-7.44-.97-11.16C0,85.68.01,58.31,0,30.94c0-5.84.53-6.37,6.12-8.04,18.66-5.57,37.29-11.23,55.93-16.86,5.62-1.7,11.25-3.34,16.84-5.13,3.82-1.22,7.49-1.22,11.37,0,11.07,3.5,22.21,6.75,33.33,10.09,13.39,4.03,26.77,8.04,40.16,12.07,5.11,1.54,5.51,2.05,5.51,7.33,0,14.12,0,28.25,0,42.37h-.06Zm-80.25-18.91s-.07,0-.1,0c0-9.5.01-19-.01-28.5,0-1.62-.02-3.26-.26-4.86-.52-3.39-2.56-4.74-5.88-3.88-2.05.53-4.02,1.36-6.06,1.97-18.66,5.57-37.32,11.1-55.97,16.68-3.79,1.14-4.55,2.17-4.59,6.22-.15,16-.27,31.99-.33,47.99-.02,5.42,1.57,6.98,6.89,7.01,7.37.04,14.75.02,22.12.02,10.75,0,21.5.02,32.25-.01,2.05,0,3.64.07,3.61,2.9-.19,17.74-.27,35.49-.36,53.23-.03,6-.25,12.01.06,17.99.27,5.22,2.74,6.55,7.54,4.69,10.87-4.22,21.2-9.5,30.87-16.01,11.57-7.79,22.26-16.54,29.84-28.51,3.07-4.85,4.85-10.12,4.89-15.89.04-6.5.02-13-.02-19.5-.04-6.08-1.19-7.24-7.21-7.25-17.62-.01-35.25,0-52.87,0-4.39,0-4.41-.02-4.42-4.29-.02-10,0-20,0-30Z"/>
  </g>
</svg>