<?xml version="1.0" standalone="no"?>
<!DOCTYPE svg PUBLIC "-//W3C//DTD SVG 20010904//EN"
 "http://www.w3.org/TR/2001/REC-SVG-20010904/DTD/svg10.dtd">
<svg version="1.0" xmlns="http://www.w3.org/2000/svg"
 width="768.000000pt" height="768.000000pt" viewBox="0 0 768.000000 768.000000"
 preserveAspectRatio="xMidYMid meet">
<metadata>
Created by potrace 1.14, written by Peter Selinger 2001-2017
</metadata>
<g transform="translate(0.000000,768.000000) scale(0.100000,-0.100000)"
fill="#000000" stroke="none">
<path d="M3714 7670 c-23 -5 -61 -14 -85 -21 -55 -16 -51 -15 -69 -22 -17 -7
-249 -78 -264 -81 -20 -4 -161 -47 -186 -57 -14 -5 -34 -11 -45 -13 -11 -3
-58 -17 -105 -31 -47 -15 -101 -31 -120 -36 -19 -6 -46 -14 -60 -19 -14 -5
-59 -18 -100 -30 -41 -12 -86 -25 -100 -30 -14 -5 -59 -18 -100 -30 -41 -12
-95 -29 -120 -37 -25 -8 -52 -16 -60 -18 -8 -2 -69 -20 -135 -40 -66 -21 -156
-48 -200 -61 -44 -12 -109 -32 -145 -44 -36 -11 -72 -23 -81 -25 -9 -2 -63
-18 -119 -35 -56 -17 -110 -33 -119 -35 -9 -3 -77 -23 -151 -46 -202 -61 -263
-80 -280 -84 -8 -2 -89 -27 -180 -55 -91 -28 -174 -53 -184 -55 -147 -34 -219
-87 -236 -172 -9 -39 -10 -541 -7 -1851 3 -988 7 -1810 10 -1827 2 -16 8 -55
12 -85 18 -143 61 -295 122 -439 42 -97 117 -245 133 -261 3 -3 11 -16 18 -30
14 -27 151 -222 162 -230 4 -3 31 -34 61 -70 76 -93 297 -320 411 -425 112
-102 309 -268 398 -335 18 -14 39 -31 46 -37 7 -7 15 -13 18 -13 3 0 40 -26
83 -58 126 -94 337 -232 466 -305 12 -7 33 -20 47 -29 69 -45 496 -263 650
-332 144 -64 173 -76 186 -76 8 0 14 -4 14 -10 0 -5 6 -10 13 -10 7 0 69 -22
137 -50 69 -27 132 -50 140 -50 9 0 20 -4 25 -9 25 -22 145 -54 215 -56 78 -3
102 3 280 70 19 7 62 23 95 36 86 32 348 141 430 179 96 44 407 200 422 211 6
6 35 22 65 38 121 63 453 267 543 333 84 63 106 78 110 78 7 0 180 134 183
142 2 5 8 8 14 8 5 0 15 6 22 12 7 7 35 31 62 53 49 41 172 146 233 200 60 53
304 300 356 360 132 153 266 347 338 488 23 45 45 85 50 88 5 3 8 10 8 15 0 5
12 41 28 79 38 94 44 108 47 120 1 6 9 29 18 53 8 23 15 43 15 45 0 1 2 9 5
17 9 30 48 206 51 235 2 17 7 59 12 95 4 36 7 171 6 300 -6 653 -7 1094 -3
1169 3 45 1 89 -3 97 -4 8 -4 14 0 14 4 0 8 462 8 1028 -1 1014 -1 1028 -21
1072 -17 36 -31 50 -70 69 -66 32 -79 37 -149 56 -33 10 -67 20 -75 23 -8 3
-19 6 -25 7 -5 2 -57 17 -115 34 -58 18 -112 34 -120 36 -8 1 -44 12 -79 24
-35 12 -70 21 -78 21 -7 0 -21 4 -31 10 -20 11 -130 42 -135 38 -2 -2 -11 3
-20 11 -10 7 -17 11 -17 7 0 -3 -12 -1 -27 5 -16 6 -35 12 -43 14 -8 2 -69 20
-135 40 -66 20 -124 38 -130 39 -5 2 -17 5 -25 8 -22 8 -363 110 -375 112 -10
2 -76 22 -185 56 -30 9 -91 27 -135 40 -44 12 -89 26 -100 30 -20 8 -65 20
-75 19 -3 0 -30 9 -60 21 -30 12 -55 21 -55 19 0 -1 -27 6 -60 16 -33 9 -61
17 -63 16 -1 -1 -18 5 -37 13 -19 8 -35 12 -35 8 0 -3 -5 -1 -12 6 -7 7 -19
12 -27 12 -8 0 -53 12 -100 26 -47 14 -90 27 -96 29 -5 1 -14 4 -20 5 -5 2
-39 13 -75 25 -36 12 -69 23 -75 25 -12 3 -6 1 -145 44 -63 19 -140 42 -170
51 -62 19 -252 28 -316 15z m207 -667 c52 -31 79 -103 85 -229 3 -60 7 -658 9
-1329 3 -671 5 -1228 6 -1238 0 -21 45 -45 82 -43 15 1 27 -1 27 -4 0 -7 87
-3 100 5 5 3 10 3 10 -2 0 -4 25 -8 55 -8 30 0 55 4 55 8 0 5 5 5 11 1 16 -9
210 -11 216 -1 2 4 9 4 15 0 16 -9 139 -10 145 0 2 4 9 5 14 1 16 -9 169 -10
169 -1 0 5 4 5 10 2 15 -9 91 -12 96 -3 3 5 10 5 16 2 15 -10 118 -10 118 -1
0 5 4 5 10 2 15 -9 91 -12 96 -3 3 5 10 5 16 2 15 -10 249 -11 255 -1 2 4 9 4
15 0 16 -9 139 -10 145 0 2 4 9 4 15 1 9 -6 96 -8 116 -3 4 1 12 0 17 -1 24
-5 92 -3 103 3 6 4 13 4 15 0 6 -10 59 -9 75 1 6 3 13 3 16 -2 5 -9 81 -6 96
3 6 3 10 2 10 -2 0 -9 74 -8 90 2 6 3 10 3 10 -2 0 -4 39 -9 88 -9 129 -3 179
-21 209 -77 21 -40 22 -44 31 -137 12 -125 5 -1025 -8 -1025 -1 0 -4 -11 -6
-24 -26 -140 -94 -307 -178 -436 -73 -113 -140 -205 -148 -205 -4 0 -8 -7 -8
-15 0 -7 -6 -18 -13 -22 -7 -4 -20 -18 -28 -30 -46 -67 -298 -329 -403 -418
-26 -22 -60 -51 -76 -65 -16 -14 -43 -36 -61 -50 -18 -14 -37 -30 -43 -35 -48
-46 -515 -375 -532 -375 -3 0 -18 -9 -32 -21 -61 -47 -377 -223 -547 -306 -55
-26 -103 -52 -106 -56 -3 -5 -9 -8 -13 -8 -10 1 -70 -23 -96 -38 -8 -5 -27
-14 -42 -20 -16 -6 -40 -16 -55 -22 -16 -6 -36 -15 -45 -20 -30 -15 -197 -80
-221 -86 -68 -16 -96 -18 -132 -10 -70 15 -101 59 -122 172 -4 22 -6 364 -4
760 1 396 3 960 4 1252 1 293 6 533 10 533 5 0 6 4 3 8 -5 9 -7 115 -4 257 2
111 -7 151 -40 173 -24 16 -101 17 -1197 17 -1081 1 -1174 2 -1221 18 -28 10
-63 30 -78 46 -58 61 -58 51 -51 1089 7 1053 8 1135 24 1175 23 58 97 103 217
132 10 3 57 17 104 31 47 14 112 34 145 43 33 10 67 21 75 24 8 3 35 11 60 17
25 6 54 15 65 19 16 7 202 62 225 67 3 0 12 3 20 7 8 3 49 15 90 27 41 11 92
27 113 35 20 8 37 13 37 10 0 -2 12 0 28 6 15 6 41 15 57 19 17 4 71 20 120
35 50 14 97 28 105 30 8 2 42 12 75 23 33 11 96 29 140 41 44 12 86 24 93 26
7 3 14 5 17 5 3 1 20 7 40 16 19 8 35 11 35 8 0 -4 7 0 17 7 9 8 17 12 17 10
1 -4 75 15 154 40 34 12 68 22 75 23 14 2 123 35 242 73 44 13 87 26 95 29 8
2 49 15 90 29 41 15 89 29 105 32 17 3 32 6 33 8 9 9 86 -6 113 -22z"/>
</g>
</svg>
